<svg width="120" height="32" viewBox="0 0 120 32" fill="none" xmlns="http://www.w3.org/2000/svg">
<path d="M0.90625 25L8.76562 1.73438H15.1406L23 25H16.9844L15.5312 20.25H8.21875L6.76562 25H0.90625ZM14.25 16.0312L11.875 8.35938L9.5 16.0312H14.25ZM35.4844 19.4688V11.5156C35.2135 11.3906 34.8802 11.2865 34.4844 11.2031C34.0885 11.1198 33.6927 11.0781 33.2969 11.0781C31.9844 11.0781 30.9948 11.5052 30.3281 12.3594C29.6719 13.2031 29.3438 14.3854 29.3438 15.9062C29.3438 16.6667 29.3906 17.3125 29.4844 17.8438C29.5885 18.3646 29.776 18.8281 30.0469 19.2344C30.3073 19.6302 30.6458 19.9323 31.0625 20.1406C31.4896 20.3385 32.0312 20.4375 32.6875 20.4375C33.1771 20.4375 33.6562 20.3542 34.125 20.1875C34.6042 20.0208 35.0573 19.7812 35.4844 19.4688ZM40.9531 22.9844C40.9531 24.6094 40.7188 25.9896 40.25 27.125C39.7812 28.2604 39.1406 29.1458 38.3281 29.7812C37.5156 30.4271 36.5417 30.8906 35.4062 31.1719C34.2708 31.4635 33.0104 31.6094 31.625 31.6094C30.4583 31.6094 29.349 31.5312 28.2969 31.375C27.2552 31.2292 26.349 31.0573 25.5781 30.8594V26.4688H26.2188C26.4896 26.5729 26.8073 26.6875 27.1719 26.8125C27.5469 26.9375 27.9219 27.0521 28.2969 27.1562C28.7448 27.2708 29.1823 27.3646 29.6094 27.4375C30.0365 27.5104 30.474 27.5469 30.9219 27.5469C31.849 27.5469 32.6198 27.4479 33.2344 27.25C33.8594 27.0625 34.3281 26.7917 34.6406 26.4375C34.9531 26.0729 35.1719 25.6406 35.2969 25.1406C35.4219 24.651 35.4844 24.0312 35.4844 23.2812V22.9531C34.8698 23.4948 34.1562 23.9323 33.3438 24.2656C32.5417 24.5885 31.7135 24.75 30.8594 24.75C28.5885 24.75 26.8333 24.0104 25.5938 22.5312C24.3646 21.0521 23.75 18.8021 23.75 15.7812C23.75 14.4062 23.9375 13.1719 24.3125 12.0781C24.6979 10.9844 25.2292 10.0521 25.9062 9.28125C26.5521 8.54167 27.3333 7.97396 28.25 7.57812C29.1667 7.17188 30.1198 6.96875 31.1094 6.96875C32.0052 6.96875 32.8073 7.08333 33.5156 7.3125C34.224 7.54167 34.8698 7.84896 35.4531 8.23438L35.6562 7.45312H40.9531V22.9844ZM54.1406 25.4688C50.8281 25.4688 48.2865 24.6771 46.5156 23.0938C44.7552 21.5104 43.875 19.2552 43.875 16.3281C43.875 13.4635 44.6979 11.1771 46.3438 9.46875C47.9896 7.76042 50.2917 6.90625 53.25 6.90625C55.9375 6.90625 57.9583 7.63021 59.3125 9.07812C60.6667 10.526 61.3438 12.599 61.3438 15.2969V17.2656H49.3594C49.4115 18.0781 49.5833 18.7604 49.875 19.3125C50.1667 19.8542 50.5521 20.2865 51.0312 20.6094C51.5 20.9323 52.0469 21.1667 52.6719 21.3125C53.2969 21.4479 53.9792 21.5156 54.7188 21.5156C55.3542 21.5156 55.9792 21.4479 56.5938 21.3125C57.2083 21.1667 57.7708 20.9792 58.2812 20.75C58.7292 20.5521 59.1406 20.3385 59.5156 20.1094C59.901 19.8802 60.2135 19.6771 60.4531 19.5H61.0312V24.0156C60.5833 24.1927 60.1719 24.3594 59.7969 24.5156C59.4323 24.6615 58.9271 24.8125 58.2812 24.9688C57.6875 25.125 57.0729 25.2448 56.4375 25.3281C55.8125 25.4219 55.0469 25.4688 54.1406 25.4688ZM55.9531 13.9688C55.9219 12.8125 55.651 11.9323 55.1406 11.3281C54.6406 10.724 53.8698 10.4219 52.8281 10.4219C51.7656 10.4219 50.9323 10.7396 50.3281 11.375C49.7344 12.0104 49.4062 12.875 49.3438 13.9688H55.9531ZM80.5938 25H75.0938V16.2969C75.0938 15.5885 75.0625 14.8854 75 14.1875C74.9479 13.4792 74.8438 12.9583 74.6875 12.625C74.5 12.2292 74.2292 11.9479 73.875 11.7812C73.5208 11.6042 73.0469 11.5156 72.4531 11.5156C72.0052 11.5156 71.5521 11.599 71.0938 11.7656C70.6354 11.9323 70.1458 12.1979 69.625 12.5625V25H64.1562V7.45312H69.625V9.39062C70.5208 8.63021 71.3906 8.03646 72.2344 7.60938C73.0885 7.18229 74.0312 6.96875 75.0625 6.96875C76.8542 6.96875 78.224 7.53646 79.1719 8.67188C80.1198 9.79688 80.5938 11.4323 80.5938 13.5781V25ZM100.609 25H95.1406V23.1719C94.7865 23.4635 94.3802 23.776 93.9219 24.1094C93.474 24.4427 93.0781 24.6927 92.7344 24.8594C92.2969 25.0677 91.8646 25.224 91.4375 25.3281C91.0104 25.4323 90.5 25.4844 89.9062 25.4844C87.9062 25.4844 86.3229 24.6562 85.1562 23C83.9896 21.3438 83.4062 19.1302 83.4062 16.3594C83.4062 14.8281 83.6042 13.5 84 12.375C84.3958 11.25 84.9427 10.2708 85.6406 9.4375C86.276 8.67708 87.0469 8.07812 87.9531 7.64062C88.8594 7.19271 89.8177 6.96875 90.8281 6.96875C91.7448 6.96875 92.4948 7.06771 93.0781 7.26562C93.6719 7.45312 94.3594 7.75 95.1406 8.15625V0.6875H100.609V25ZM95.1406 20.1562V11.5469C94.8698 11.4115 94.5156 11.3021 94.0781 11.2188C93.6406 11.125 93.2656 11.0781 92.9531 11.0781C91.6406 11.0781 90.651 11.5365 89.9844 12.4531C89.3281 13.3698 89 14.651 89 16.2969C89 18.026 89.2604 19.276 89.7812 20.0469C90.3125 20.8177 91.1667 21.2031 92.3438 21.2031C92.8229 21.2031 93.3073 21.1094 93.7969 20.9219C94.2865 20.7344 94.7344 20.4792 95.1406 20.1562ZM114.484 20.4219V16.7656C113.557 16.8594 112.807 16.9427 112.234 17.0156C111.661 17.0781 111.099 17.2083 110.547 17.4062C110.068 17.5729 109.693 17.8281 109.422 18.1719C109.161 18.5052 109.031 18.9531 109.031 19.5156C109.031 20.3385 109.25 20.9062 109.688 21.2188C110.135 21.5208 110.792 21.6719 111.656 21.6719C112.135 21.6719 112.625 21.5625 113.125 21.3438C113.625 21.125 114.078 20.8177 114.484 20.4219ZM114.484 23.1406C114.109 23.4531 113.771 23.7344 113.469 23.9844C113.177 24.2344 112.781 24.4844 112.281 24.7344C111.792 24.974 111.312 25.1562 110.844 25.2812C110.385 25.4062 109.74 25.4688 108.906 25.4688C107.354 25.4688 106.062 24.9479 105.031 23.9062C104.01 22.8646 103.5 21.5521 103.5 19.9688C103.5 18.6667 103.76 17.6146 104.281 16.8125C104.802 16.0104 105.552 15.375 106.531 14.9062C107.521 14.4271 108.703 14.0938 110.078 13.9062C111.453 13.7188 112.932 13.5729 114.516 13.4688V13.375C114.516 12.4062 114.156 11.7396 113.438 11.375C112.729 11 111.661 10.8125 110.234 10.8125C109.589 10.8125 108.833 10.9323 107.969 11.1719C107.104 11.401 106.26 11.6979 105.438 12.0625H104.969V7.82812C105.51 7.67188 106.385 7.48958 107.594 7.28125C108.802 7.0625 110.021 6.95312 111.25 6.95312C114.271 6.95312 116.469 7.45833 117.844 8.46875C119.229 9.46875 119.922 11 119.922 13.0625V25H114.484V23.1406Z" fill="white"/>
</svg>

